# xmcd
#
# Track frame offsets: 
#        150
#        18448
#        34152
#        55667
#        71260
#        91840
#        116963
#        133225
#        145656
#        161929
#        180032
#        202482
#        227385
#        251581
#        265921
#
# Disc length: 3699 seconds
#
# Revision: 0
# Processed by: cddbd v1.5.2PL0 Copyright (c) Steve Scherf et al.
# Submitted via: ExactAudioCopy v0.99pb4
#
DISCID=d00e710f
DTITLE=Rod Piazza and  The Mighty Flyers - Blues in the Dark
DYEAR=2008
DGENRE=Blues
TTITLE0=Too Late Brother 
TTITLE1=Bad Bad Boy
TTITLE2=California Blues 
TTITLE3=Hear Me Knockin 
TTITLE4=Too Tired
TTITLE5=4811 Wadsworth (Blues For George) 
TTITLE6=In The Dark 
TTITLE7=The Toodle
TTITLE8=She Wants To Sell My Monkey
TTITLE9=Are You Out There ?
TTITLE10=Low Down Dog 
TTITLE11=Buzzin' 
TTITLE12=Back Door Man 
TTITLE13=Deep Fried 
TTITLE14=Jam Up 
EXTD=
EXTT0=
EXTT1=
EXTT2=
EXTT3=
EXTT4=
EXTT5=
EXTT6=
EXTT7=
EXTT8=
EXTT9=
EXTT10=
EXTT11=
EXTT12=
EXTT13=
EXTT14=
PLAYORDER=
